<svg width="16" height="16" viewBox="0 0 16 16" fill="none" xmlns="http://www.w3.org/2000/svg">
<path d="M12.743 11.0698H11.7822C11.7166 11.0698 11.6551 11.0991 11.6141 11.1507C11.5184 11.2693 11.4159 11.3837 11.3079 11.4926C10.8663 11.9439 10.3432 12.3035 9.76758 12.5516C9.1712 12.8088 8.53021 12.9407 7.88282 12.9395C7.22814 12.9395 6.59397 12.8084 5.99806 12.5516C5.42243 12.3035 4.89934 11.9439 4.45773 11.4926C4.01533 11.0428 3.66258 10.5097 3.419 9.9228C3.16615 9.31443 3.03904 8.66838 3.03904 8.00001C3.03904 7.33164 3.16751 6.68559 3.419 6.07722C3.66228 5.48978 4.01217 4.96095 4.45773 4.50746C4.90329 4.05397 5.42129 3.69676 5.99806 3.44839C6.59397 3.19165 7.22814 3.06048 7.88282 3.06048C8.5375 3.06048 9.17167 3.19025 9.76758 3.44839C10.3443 3.69676 10.8623 4.05397 11.3079 4.50746C11.4159 4.61769 11.517 4.73211 11.6141 4.84932C11.6551 4.90095 11.7179 4.93025 11.7822 4.93025H12.743C12.8291 4.93025 12.8824 4.83257 12.8346 4.75862C11.7863 3.09537 9.95209 1.99444 7.86779 2.00002C4.59304 2.00839 1.9675 4.72234 2.0003 8.06141C2.03311 11.3474 4.65454 14 7.88282 14C9.96166 14 11.7876 12.9005 12.8346 11.2414C12.881 11.1674 12.8291 11.0698 12.743 11.0698Z" fill="black"/>
<path d="M5.64645 7.64645C5.45118 7.84171 5.45118 8.15829 5.64645 8.35355L8.82843 11.5355C9.02369 11.7308 9.34027 11.7308 9.53553 11.5355C9.7308 11.3403 9.7308 11.0237 9.53553 10.8284L6.70711 8L9.53553 5.17157C9.7308 4.97631 9.7308 4.65973 9.53553 4.46447C9.34027 4.2692 9.02369 4.2692 8.82843 4.46447L5.64645 7.64645ZM13 7.5L6 7.5L6 8.5L13 8.5L13 7.5Z" fill="black"/>
</svg>
