<svg width="40" height="40" viewBox="0 0 40 40" fill="none" xmlns="http://www.w3.org/2000/svg">
<circle cx="20" cy="20" r="20" fill="#00CE87"/>
<path d="M28.2961 9.62964H11.7035C10.5627 9.62964 9.63976 10.563 9.63976 11.7037L9.62939 30.3704L13.7775 26.2222H28.2961C29.4368 26.2222 30.3701 25.2889 30.3701 24.1482V11.7037C30.3701 10.563 29.4368 9.62964 28.2961 9.62964ZM13.7775 22.0741V19.5126L20.9124 12.3778C21.1198 12.1704 21.4412 12.1704 21.6487 12.3778L23.4842 14.2133C23.6916 14.4208 23.6916 14.7422 23.4842 14.9496L16.339 22.0741H13.7775ZM26.222 22.0741H18.4442L20.5183 20H26.222V22.0741Z" fill="white"/>
</svg>
