<svg width="20" height="20" viewBox="0 0 20 20" fill="none" xmlns="http://www.w3.org/2000/svg">
<path d="M2.5 2.5V16.6667C2.5 16.8877 2.5878 17.0996 2.74408 17.2559C2.90036 17.4122 3.11232 17.5 3.33333 17.5H17.5V15.8333H4.16667V2.5H2.5Z" fill="#262626"/>
<path d="M12.7443 12.2558C12.8216 12.3333 12.9135 12.3947 13.0146 12.4366C13.1157 12.4786 13.224 12.5001 13.3335 12.5001C13.4429 12.5001 13.5513 12.4786 13.6524 12.4366C13.7535 12.3947 13.8453 12.3333 13.9226 12.2558L18.0893 8.08915L16.911 6.91081L13.3335 10.4883L11.4226 8.57748C11.3453 8.50002 11.2535 8.43858 11.1524 8.39665C11.0513 8.35472 10.9429 8.33314 10.8335 8.33314C10.724 8.33314 10.6157 8.35472 10.5146 8.39665C10.4135 8.43858 10.3216 8.50002 10.2443 8.57748L6.07764 12.7441L7.25597 13.9225L10.8335 10.345L12.7443 12.2558Z" fill="#262626"/>
</svg>
