<svg width="40" height="40" viewBox="0 0 40 40" fill="none" xmlns="http://www.w3.org/2000/svg">
<circle cx="20" cy="20" r="20" fill="#8154EF"/>
<path d="M12.396 15.8518H24.1491V16.958H12.396V15.8518Z" fill="white"/>
<path d="M12.396 18.6173H20.0009V19.7235H12.396V18.6173Z" fill="white"/>
<path d="M12.396 23.4568H19.3096V24.563H12.396V23.4568Z" fill="white"/>
<path d="M26.5408 19.4677C25.6561 19.4606 24.7899 19.7207 24.0553 20.2138C23.3207 20.7069 22.752 21.4101 22.4234 22.2315C22.0948 23.053 22.0217 23.9545 22.2135 24.8182C22.4054 25.6818 22.8534 26.4675 23.4989 27.0726L22.1576 28.7111L22.7799 31.2069L25.3102 28.1235C26.1112 28.3603 26.9636 28.3603 27.7645 28.1235L30.2949 31.2069L30.9171 28.7111L29.5759 27.0726C30.2214 26.4675 30.6694 25.6818 30.8612 24.8182C31.0531 23.9545 30.98 23.053 30.6514 22.2315C30.3228 21.4101 29.7541 20.7069 29.0195 20.2138C28.2849 19.7207 27.4186 19.4606 26.5339 19.4677H26.5408ZM26.5408 26.8514C25.9533 26.8432 25.3814 26.6615 24.8968 26.3292C24.4123 25.9968 24.0368 25.5286 23.8177 24.9835C23.5985 24.4383 23.5454 23.8405 23.665 23.2653C23.7846 22.69 24.0716 22.163 24.4899 21.7504C24.9083 21.3378 25.4392 21.0581 26.0161 20.9464C26.5929 20.8348 27.1899 20.8962 27.732 21.1229C28.2741 21.3496 28.737 21.7315 29.0626 22.2205C29.3883 22.7096 29.562 23.2841 29.5621 23.8716C29.5548 24.6668 29.2328 25.4268 28.6666 25.9852C28.1004 26.5436 27.3361 26.8551 26.5408 26.8514Z" fill="white"/>
<path d="M29.6792 16.6953V19.0045C30.2044 19.3445 30.6713 19.767 31.0619 20.2558V16.1077C30.6322 16.3701 30.1663 16.5681 29.6792 16.6953Z" fill="white"/>
<path d="M10.3222 26.9135V13.0863H23.3059C23.1792 12.6363 23.1141 12.1711 23.1123 11.7036H10.3222C9.95545 11.7036 9.60375 11.8493 9.34444 12.1086C9.08513 12.3679 8.93945 12.7196 8.93945 13.0863V26.9135C8.93945 27.2802 9.08513 27.6319 9.34444 27.8912C9.60375 28.1505 9.95545 28.2962 10.3222 28.2962H20.6925L21.0866 27.8123L21.7296 27.0241L21.6674 26.9135H10.3222Z" fill="white"/>
<path d="M28.2961 15.1604C30.2053 15.1604 31.7529 13.6127 31.7529 11.7036C31.7529 9.79448 30.2053 8.24683 28.2961 8.24683C26.387 8.24683 24.8394 9.79448 24.8394 11.7036C24.8394 13.6127 26.387 15.1604 28.2961 15.1604Z" fill="white"/>
</svg>
