<svg width="281" height="44" viewBox="0 0 281 44" fill="none" xmlns="http://www.w3.org/2000/svg">
<rect width="281" height="44" rx="4" fill="#FF4E4E"/>
<path d="M83.2891 27V15.625H86.7891C87.7891 15.625 88.6823 15.8516 89.4688 16.3047C90.2604 16.7526 90.8776 17.3932 91.3203 18.2266C91.763 19.0547 91.9844 19.9974 91.9844 21.0547V21.5781C91.9844 22.6354 91.7656 23.5755 91.3281 24.3984C90.8958 25.2214 90.2839 25.8594 89.4922 26.3125C88.7005 26.7656 87.8073 26.9948 86.8125 27H83.2891ZM85.6328 17.5234V25.1172H86.7656C87.6823 25.1172 88.3828 24.8177 88.8672 24.2188C89.3516 23.6198 89.599 22.763 89.6094 21.6484V21.0469C89.6094 19.8906 89.3698 19.0156 88.8906 18.4219C88.4115 17.8229 87.7109 17.5234 86.7891 17.5234H85.6328ZM98.4453 27C98.3411 26.7969 98.2656 26.5443 98.2188 26.2422C97.6719 26.8516 96.9609 27.1562 96.0859 27.1562C95.2578 27.1562 94.5703 26.9167 94.0234 26.4375C93.4818 25.9583 93.2109 25.3542 93.2109 24.625C93.2109 23.7292 93.5417 23.0417 94.2031 22.5625C94.8698 22.0833 95.8307 21.8411 97.0859 21.8359H98.125V21.3516C98.125 20.9609 98.0234 20.6484 97.8203 20.4141C97.6224 20.1797 97.3073 20.0625 96.875 20.0625C96.4948 20.0625 96.1953 20.1536 95.9766 20.3359C95.763 20.5182 95.6562 20.7682 95.6562 21.0859H93.3984C93.3984 20.5964 93.5495 20.1432 93.8516 19.7266C94.1536 19.3099 94.5807 18.9844 95.1328 18.75C95.6849 18.5104 96.3047 18.3906 96.9922 18.3906C98.0339 18.3906 98.8594 18.6536 99.4688 19.1797C100.083 19.7005 100.391 20.4349 100.391 21.3828V25.0469C100.396 25.849 100.508 26.4557 100.727 26.8672V27H98.4453ZM96.5781 25.4297C96.9115 25.4297 97.2188 25.3568 97.5 25.2109C97.7812 25.0599 97.9896 24.8594 98.125 24.6094V23.1562H97.2812C96.151 23.1562 95.5495 23.5469 95.4766 24.3281L95.4688 24.4609C95.4688 24.7422 95.5677 24.974 95.7656 25.1562C95.9635 25.3385 96.2344 25.4297 96.5781 25.4297ZM102.742 27V20.2031H101.484V18.5469H102.742V17.8281C102.742 16.8802 103.013 16.1458 103.555 15.625C104.102 15.099 104.865 14.8359 105.844 14.8359C106.156 14.8359 106.539 14.888 106.992 14.9922L106.969 16.7422C106.781 16.6953 106.552 16.6719 106.281 16.6719C105.432 16.6719 105.008 17.0703 105.008 17.8672V18.5469H106.688V20.2031H105.008V27H102.742ZM110.562 16.4688V18.5469H112.008V20.2031H110.562V24.4219C110.562 24.7344 110.622 24.9583 110.742 25.0938C110.862 25.2292 111.091 25.2969 111.43 25.2969C111.68 25.2969 111.901 25.2786 112.094 25.2422V26.9531C111.651 27.0885 111.195 27.1562 110.727 27.1562C109.143 27.1562 108.336 26.3568 108.305 24.7578V20.2031H107.07V18.5469H108.305V16.4688H110.562ZM118.164 27C118.06 26.7969 117.984 26.5443 117.938 26.2422C117.391 26.8516 116.68 27.1562 115.805 27.1562C114.977 27.1562 114.289 26.9167 113.742 26.4375C113.201 25.9583 112.93 25.3542 112.93 24.625C112.93 23.7292 113.26 23.0417 113.922 22.5625C114.589 22.0833 115.549 21.8411 116.805 21.8359H117.844V21.3516C117.844 20.9609 117.742 20.6484 117.539 20.4141C117.341 20.1797 117.026 20.0625 116.594 20.0625C116.214 20.0625 115.914 20.1536 115.695 20.3359C115.482 20.5182 115.375 20.7682 115.375 21.0859H113.117C113.117 20.5964 113.268 20.1432 113.57 19.7266C113.872 19.3099 114.299 18.9844 114.852 18.75C115.404 18.5104 116.023 18.3906 116.711 18.3906C117.753 18.3906 118.578 18.6536 119.188 19.1797C119.802 19.7005 120.109 20.4349 120.109 21.3828V25.0469C120.115 25.849 120.227 26.4557 120.445 26.8672V27H118.164ZM116.297 25.4297C116.63 25.4297 116.938 25.3568 117.219 25.2109C117.5 25.0599 117.708 24.8594 117.844 24.6094V23.1562H117C115.87 23.1562 115.268 23.5469 115.195 24.3281L115.188 24.4609C115.188 24.7422 115.286 24.974 115.484 25.1562C115.682 25.3385 115.953 25.4297 116.297 25.4297ZM126.594 20.6641C126.286 20.6224 126.016 20.6016 125.781 20.6016C124.927 20.6016 124.367 20.8906 124.102 21.4688V27H121.844V18.5469H123.977L124.039 19.5547C124.492 18.7786 125.12 18.3906 125.922 18.3906C126.172 18.3906 126.406 18.4245 126.625 18.4922L126.594 20.6641ZM137.719 24.0156C137.719 23.5729 137.562 23.2344 137.25 23C136.938 22.7604 136.375 22.5104 135.562 22.25C134.75 21.9844 134.107 21.724 133.633 21.4688C132.341 20.7708 131.695 19.8307 131.695 18.6484C131.695 18.0339 131.867 17.487 132.211 17.0078C132.56 16.5234 133.057 16.1458 133.703 15.875C134.354 15.6042 135.083 15.4688 135.891 15.4688C136.703 15.4688 137.427 15.6172 138.062 15.9141C138.698 16.2057 139.19 16.6198 139.539 17.1562C139.893 17.6927 140.07 18.3021 140.07 18.9844H137.727C137.727 18.4635 137.562 18.0599 137.234 17.7734C136.906 17.4818 136.445 17.3359 135.852 17.3359C135.279 17.3359 134.833 17.4583 134.516 17.7031C134.198 17.9427 134.039 18.2604 134.039 18.6562C134.039 19.026 134.224 19.3359 134.594 19.5859C134.969 19.8359 135.518 20.0703 136.242 20.2891C137.576 20.6901 138.547 21.1875 139.156 21.7812C139.766 22.375 140.07 23.1146 140.07 24C140.07 24.9844 139.698 25.7578 138.953 26.3203C138.208 26.8776 137.206 27.1562 135.945 27.1562C135.07 27.1562 134.273 26.9974 133.555 26.6797C132.836 26.3568 132.286 25.9167 131.906 25.3594C131.531 24.8021 131.344 24.1562 131.344 23.4219H133.695C133.695 24.6771 134.445 25.3047 135.945 25.3047C136.503 25.3047 136.938 25.1927 137.25 24.9688C137.562 24.7396 137.719 24.4219 137.719 24.0156ZM145.406 27.1562C144.167 27.1562 143.156 26.776 142.375 26.0156C141.599 25.2552 141.211 24.2422 141.211 22.9766V22.7578C141.211 21.9089 141.375 21.151 141.703 20.4844C142.031 19.8125 142.495 19.2969 143.094 18.9375C143.698 18.5729 144.385 18.3906 145.156 18.3906C146.312 18.3906 147.221 18.7552 147.883 19.4844C148.549 20.2135 148.883 21.2474 148.883 22.5859V23.5078H143.5C143.573 24.0599 143.792 24.5026 144.156 24.8359C144.526 25.1693 144.992 25.3359 145.555 25.3359C146.424 25.3359 147.104 25.0208 147.594 24.3906L148.703 25.6328C148.365 26.112 147.906 26.487 147.328 26.7578C146.75 27.0234 146.109 27.1562 145.406 27.1562ZM145.148 20.2188C144.701 20.2188 144.336 20.3698 144.055 20.6719C143.779 20.974 143.602 21.4062 143.523 21.9688H146.664V21.7891C146.654 21.2891 146.518 20.9036 146.258 20.6328C145.997 20.3568 145.628 20.2188 145.148 20.2188ZM153.242 23.6094L152.43 24.4219V27H150.172V15H152.43V21.6484L152.867 21.0859L155.031 18.5469H157.742L154.688 22.0703L158.008 27H155.414L153.242 23.6094ZM163.617 27C163.513 26.7969 163.438 26.5443 163.391 26.2422C162.844 26.8516 162.133 27.1562 161.258 27.1562C160.43 27.1562 159.742 26.9167 159.195 26.4375C158.654 25.9583 158.383 25.3542 158.383 24.625C158.383 23.7292 158.714 23.0417 159.375 22.5625C160.042 22.0833 161.003 21.8411 162.258 21.8359H163.297V21.3516C163.297 20.9609 163.195 20.6484 162.992 20.4141C162.794 20.1797 162.479 20.0625 162.047 20.0625C161.667 20.0625 161.367 20.1536 161.148 20.3359C160.935 20.5182 160.828 20.7682 160.828 21.0859H158.57C158.57 20.5964 158.721 20.1432 159.023 19.7266C159.326 19.3099 159.753 18.9844 160.305 18.75C160.857 18.5104 161.477 18.3906 162.164 18.3906C163.206 18.3906 164.031 18.6536 164.641 19.1797C165.255 19.7005 165.562 20.4349 165.562 21.3828V25.0469C165.568 25.849 165.68 26.4557 165.898 26.8672V27H163.617ZM161.75 25.4297C162.083 25.4297 162.391 25.3568 162.672 25.2109C162.953 25.0599 163.161 24.8594 163.297 24.6094V23.1562H162.453C161.323 23.1562 160.721 23.5469 160.648 24.3281L160.641 24.4609C160.641 24.7422 160.74 24.974 160.938 25.1562C161.135 25.3385 161.406 25.4297 161.75 25.4297ZM172.047 20.6641C171.74 20.6224 171.469 20.6016 171.234 20.6016C170.38 20.6016 169.82 20.8906 169.555 21.4688V27H167.297V18.5469H169.43L169.492 19.5547C169.945 18.7786 170.573 18.3906 171.375 18.3906C171.625 18.3906 171.859 18.4245 172.078 18.4922L172.047 20.6641ZM177.805 27C177.701 26.7969 177.625 26.5443 177.578 26.2422C177.031 26.8516 176.32 27.1562 175.445 27.1562C174.617 27.1562 173.93 26.9167 173.383 26.4375C172.841 25.9583 172.57 25.3542 172.57 24.625C172.57 23.7292 172.901 23.0417 173.562 22.5625C174.229 22.0833 175.19 21.8411 176.445 21.8359H177.484V21.3516C177.484 20.9609 177.383 20.6484 177.18 20.4141C176.982 20.1797 176.667 20.0625 176.234 20.0625C175.854 20.0625 175.555 20.1536 175.336 20.3359C175.122 20.5182 175.016 20.7682 175.016 21.0859H172.758C172.758 20.5964 172.909 20.1432 173.211 19.7266C173.513 19.3099 173.94 18.9844 174.492 18.75C175.044 18.5104 175.664 18.3906 176.352 18.3906C177.393 18.3906 178.219 18.6536 178.828 19.1797C179.443 19.7005 179.75 20.4349 179.75 21.3828V25.0469C179.755 25.849 179.867 26.4557 180.086 26.8672V27H177.805ZM175.938 25.4297C176.271 25.4297 176.578 25.3568 176.859 25.2109C177.141 25.0599 177.349 24.8594 177.484 24.6094V23.1562H176.641C175.51 23.1562 174.909 23.5469 174.836 24.3281L174.828 24.4609C174.828 24.7422 174.927 24.974 175.125 25.1562C175.323 25.3385 175.594 25.4297 175.938 25.4297ZM183.562 18.5469L183.633 19.5234C184.237 18.7682 185.047 18.3906 186.062 18.3906C186.958 18.3906 187.625 18.6536 188.062 19.1797C188.5 19.7057 188.724 20.4922 188.734 21.5391V27H186.477V21.5938C186.477 21.1146 186.372 20.7682 186.164 20.5547C185.956 20.3359 185.609 20.2266 185.125 20.2266C184.49 20.2266 184.013 20.4974 183.695 21.0391V27H181.438V18.5469H183.562ZM190.125 22.7109C190.125 21.4141 190.432 20.3698 191.047 19.5781C191.667 18.7865 192.5 18.3906 193.547 18.3906C194.474 18.3906 195.195 18.7083 195.711 19.3438L195.805 18.5469H197.852V26.7188C197.852 27.4583 197.682 28.1016 197.344 28.6484C197.01 29.1953 196.539 29.612 195.93 29.8984C195.32 30.1849 194.607 30.3281 193.789 30.3281C193.169 30.3281 192.565 30.2031 191.977 29.9531C191.388 29.7083 190.943 29.3906 190.641 29L191.641 27.625C192.203 28.2552 192.885 28.5703 193.688 28.5703C194.286 28.5703 194.753 28.4089 195.086 28.0859C195.419 27.7682 195.586 27.3151 195.586 26.7266V26.2734C195.065 26.862 194.38 27.1562 193.531 27.1562C192.516 27.1562 191.693 26.7604 191.062 25.9688C190.438 25.1719 190.125 24.1172 190.125 22.8047V22.7109ZM192.383 22.875C192.383 23.6406 192.536 24.2422 192.844 24.6797C193.151 25.112 193.573 25.3281 194.109 25.3281C194.797 25.3281 195.289 25.0703 195.586 24.5547V21C195.284 20.4844 194.797 20.2266 194.125 20.2266C193.583 20.2266 193.156 20.4479 192.844 20.8906C192.536 21.3333 192.383 21.9948 192.383 22.875Z" fill="white"/>
</svg>
