<svg width="61" height="61" viewBox="0 0 61 61" fill="none" xmlns="http://www.w3.org/2000/svg">
<path d="M59.636 61.0001H1.36393C1.0022 61.0001 0.655274 60.8564 0.399487 60.6006C0.1437 60.3448 0 59.9979 0 59.6362V1.36393C0 1.0022 0.1437 0.655274 0.399487 0.399487C0.655274 0.1437 1.0022 0 1.36393 0H34.8348L61 26.1651V59.636C61 59.8152 60.9647 59.9925 60.8962 60.158C60.8276 60.3235 60.7272 60.4739 60.6005 60.6006C60.4739 60.7272 60.3235 60.8277 60.158 60.8963C59.9925 60.9648 59.8152 61.0001 59.636 61.0001Z" fill="#FFD469"/>
<path d="M27.4128 15.4032H9.30516C8.28043 15.4032 7.44971 14.5724 7.44971 13.5477C7.44971 12.523 8.28043 11.6923 9.30516 11.6923H27.4128C28.4376 11.6923 29.2683 12.523 29.2683 13.5477C29.2683 14.5724 28.4376 15.4032 27.4128 15.4032ZM29.2683 25.6925C29.2683 24.6677 28.4376 23.837 27.4128 23.837H9.30516C8.28043 23.837 7.44971 24.6677 7.44971 25.6925C7.44971 26.7172 8.28043 27.5479 9.30516 27.5479H27.4128C28.4376 27.5478 29.2683 26.7172 29.2683 25.6925ZM29.2683 37.8371C29.2683 36.8125 28.4376 35.9816 27.4128 35.9816H9.30516C8.28043 35.9816 7.44971 36.8124 7.44971 37.8371C7.44971 38.8618 8.28043 39.6925 9.30516 39.6925H27.4128C28.4376 39.6924 29.2683 38.8617 29.2683 37.8371ZM44.9445 49.9817C44.9445 48.9571 44.1138 48.1262 43.0891 48.1262H9.30516C8.28043 48.1262 7.44971 48.957 7.44971 49.9817C7.44971 51.0064 8.28043 51.8372 9.30516 51.8372H43.0891C44.1138 51.837 44.9445 51.0063 44.9445 49.9817ZM51.1946 37.8371C51.1946 36.8125 50.3638 35.9816 49.3391 35.9816H36.839C35.8145 35.9816 34.9836 36.8124 34.9836 37.8371C34.9836 38.8618 35.8143 39.6925 36.839 39.6925H49.3391C50.3638 39.6924 51.1946 38.8617 51.1946 37.8371Z" fill="#597B91"/>
<path d="M34.835 0L61.0001 26.1651H40.3965C37.325 26.1651 34.835 23.6751 34.835 20.6036V0Z" fill="#FFB636"/>
</svg>
