<svg width="20" height="20" viewBox="0 0 20 20" fill="none" xmlns="http://www.w3.org/2000/svg">
<path d="M11 10C11.5304 10 12.0391 10.2107 12.4142 10.5858C12.7893 10.9609 13 11.4696 13 12H12.5C12.325 12 12.156 12.03 12 12.085V12C12 11.7348 11.8946 11.4804 11.7071 11.2929C11.5196 11.1054 11.2652 11 11 11H4C3.73478 11 3.48043 11.1054 3.29289 11.2929C3.10536 11.4804 3 11.7348 3 12V13.5C3 14.907 4.579 16 7.5 16C9.063 16 10.242 15.687 11 15.18V16.317C10.096 16.753 8.911 17 7.5 17C4.088 17 2 15.554 2 13.5V12C2 11.4696 2.21071 10.9609 2.58579 10.5858C2.96086 10.2107 3.46957 10 4 10H11ZM17.5 12C17.675 12 17.844 12.03 18 12.085V12C18 11.4696 17.7893 10.9609 17.4142 10.5858C17.0391 10.2107 16.5304 10 16 10H13.235C13.4963 10.2914 13.6981 10.6311 13.829 11H16C16.2652 11 16.5196 11.1054 16.7071 11.2929C16.8946 11.4804 17 11.7348 17 12H17.5ZM7.5 2C7.95963 2 8.41475 2.09053 8.83939 2.26642C9.26403 2.44231 9.64987 2.70012 9.97487 3.02513C10.2999 3.35013 10.5577 3.73597 10.7336 4.16061C10.9095 4.58525 11 5.04037 11 5.5C11 5.95963 10.9095 6.41475 10.7336 6.83939C10.5577 7.26403 10.2999 7.64987 9.97487 7.97487C9.64987 8.29988 9.26403 8.55769 8.83939 8.73358C8.41475 8.90947 7.95963 9 7.5 9C6.57174 9 5.6815 8.63125 5.02513 7.97487C4.36875 7.3185 4 6.42826 4 5.5C4 4.57174 4.36875 3.6815 5.02513 3.02513C5.6815 2.36875 6.57174 2 7.5 2ZM7.5 3C6.83696 3 6.20107 3.26339 5.73223 3.73223C5.26339 4.20107 5 4.83696 5 5.5C5 6.16304 5.26339 6.79893 5.73223 7.26777C6.20107 7.73661 6.83696 8 7.5 8C8.16304 8 8.79893 7.73661 9.26777 7.26777C9.73661 6.79893 10 6.16304 10 5.5C10 4.83696 9.73661 4.20107 9.26777 3.73223C8.79893 3.26339 8.16304 3 7.5 3ZM14.5 4C15.163 4 15.7989 4.26339 16.2678 4.73223C16.7366 5.20107 17 5.83696 17 6.5C17 7.16304 16.7366 7.79893 16.2678 8.26777C15.7989 8.73661 15.163 9 14.5 9C13.837 9 13.2011 8.73661 12.7322 8.26777C12.2634 7.79893 12 7.16304 12 6.5C12 5.83696 12.2634 5.20107 12.7322 4.73223C13.2011 4.26339 13.837 4 14.5 4ZM14.5 5C14.1022 5 13.7206 5.15804 13.4393 5.43934C13.158 5.72064 13 6.10218 13 6.5C13 6.89782 13.158 7.27936 13.4393 7.56066C13.7206 7.84196 14.1022 8 14.5 8C14.8978 8 15.2794 7.84196 15.5607 7.56066C15.842 7.27936 16 6.89782 16 6.5C16 6.10218 15.842 5.72064 15.5607 5.43934C15.2794 5.15804 14.8978 5 14.5 5ZM12.5 13C12.3674 13 12.2402 13.0527 12.1464 13.1464C12.0527 13.2402 12 13.3674 12 13.5C12 13.6326 12.0527 13.7598 12.1464 13.8536C12.2402 13.9473 12.3674 14 12.5 14H17.5C17.6326 14 17.7598 13.9473 17.8536 13.8536C17.9473 13.7598 18 13.6326 18 13.5C18 13.3674 17.9473 13.2402 17.8536 13.1464C17.7598 13.0527 17.6326 13 17.5 13H12.5ZM12.5 15C12.3674 15 12.2402 15.0527 12.1464 15.1464C12.0527 15.2402 12 15.3674 12 15.5C12 15.6326 12.0527 15.7598 12.1464 15.8536C12.2402 15.9473 12.3674 16 12.5 16H17.5C17.6326 16 17.7598 15.9473 17.8536 15.8536C17.9473 15.7598 18 15.6326 18 15.5C18 15.3674 17.9473 15.2402 17.8536 15.1464C17.7598 15.0527 17.6326 15 17.5 15H12.5ZM12.5 17C12.3674 17 12.2402 17.0527 12.1464 17.1464C12.0527 17.2402 12 17.3674 12 17.5C12 17.6326 12.0527 17.7598 12.1464 17.8536C12.2402 17.9473 12.3674 18 12.5 18H17.5C17.6326 18 17.7598 17.9473 17.8536 17.8536C17.9473 17.7598 18 17.6326 18 17.5C18 17.3674 17.9473 17.2402 17.8536 17.1464C17.7598 17.0527 17.6326 17 17.5 17H12.5Z" fill="#262626"/>
</svg>
