<svg width="15" height="15" viewBox="0 0 15 15" fill="none" xmlns="http://www.w3.org/2000/svg">
<path d="M11.3332 3.58918C11.3332 4.11411 10.6985 4.37699 10.3273 4.00581L8.68152 2.36C8.07492 1.75339 7.09142 1.75339 6.48482 2.36L2.339 6.50581C2.09514 6.74968 2.26785 7.16665 2.61273 7.16665C2.82652 7.16665 2.99984 7.33996 2.99984 7.55375V12.5833C2.99984 13.2737 3.55948 13.8333 4.24984 13.8333C4.94019 13.8333 5.49984 13.2737 5.49984 12.5833V10.9166C5.49984 9.76605 6.43258 8.83331 7.58317 8.83331C8.73376 8.83331 9.6665 9.76605 9.6665 10.9166V12.5833C9.6665 13.2737 10.2261 13.8333 10.9165 13.8333C11.6069 13.8333 12.1665 13.2737 12.1665 12.5833V7.55375C12.1665 7.33996 12.3398 7.16665 12.5536 7.16665C12.8985 7.16665 13.0712 6.74968 12.8273 6.50581L12.3601 6.03853C12.2361 5.9146 12.1665 5.74652 12.1665 5.57125V3.41665C12.1665 3.18653 11.98 2.99998 11.7498 2.99998C11.5197 2.99998 11.3332 3.18653 11.3332 3.41665V3.58918ZM1.43427 7.99998C0.781921 7.99998 0.455223 7.21126 0.916504 6.74998L6.7289 0.937584C7.2007 0.465783 7.96564 0.465783 8.43744 0.937584L10.0832 2.58331C10.2369 2.73707 10.4998 2.62817 10.4998 2.41072C10.4998 2.27592 10.6091 2.16665 10.7439 2.16665H11.7498C12.4402 2.16665 12.9998 2.72629 12.9998 3.41665V4.98221C12.9998 5.31373 13.1315 5.63168 13.366 5.8661L14.2498 6.74998C14.7111 7.21126 14.3844 7.99998 13.7321 7.99998C13.3277 7.99998 12.9998 8.32781 12.9998 8.73221V12.5816C12.9998 13.7322 12.0671 14.665 10.9165 14.665C9.76591 14.665 8.83317 13.7322 8.83317 12.5816V10.915C8.83317 10.2246 8.27353 9.66498 7.58317 9.66498C6.89282 9.66498 6.33317 10.2246 6.33317 10.915V12.5816C6.33317 13.7322 5.40043 14.665 4.24984 14.665C3.09924 14.665 2.1665 13.7322 2.1665 12.5816V8.73221C2.1665 8.32781 1.83867 7.99998 1.43427 7.99998Z" fill="#262626"/>
</svg>
