<svg width="15" height="14" viewBox="0 0 15 14" fill="none" xmlns="http://www.w3.org/2000/svg">
<path d="M7.05331 0.888123C7.23796 0.521005 7.76204 0.521005 7.94668 0.888123L9.70021 4.37458C9.77369 4.52069 9.914 4.62162 10.0759 4.64485L13.9823 5.20523C14.3952 5.26445 14.5583 5.77338 14.2568 6.06159L11.443 8.75136C11.3224 8.86666 11.2672 9.03451 11.296 9.19887L11.9616 13.0075C12.0327 13.4148 11.6071 13.7275 11.2397 13.5379L7.72932 11.7261C7.58545 11.6519 7.41454 11.6519 7.27068 11.7261L3.7603 13.5379C3.39294 13.7275 2.96727 13.4148 3.03844 13.0075L3.70404 9.19887C3.73276 9.03451 3.6776 8.86666 3.557 8.75136L0.743152 6.06159C0.441647 5.77338 0.604778 5.26445 1.01765 5.20523L4.9241 4.64485C5.086 4.62162 5.2263 4.52069 5.29979 4.37458L7.05331 0.888123Z" fill="#FFB801"/>
</svg>
