<svg width="241" height="40" viewBox="0 0 241 40" fill="none" xmlns="http://www.w3.org/2000/svg">
<rect x="0.5" y="0.5" width="38.6164" height="38.6164" rx="19.3082" stroke="#DEDFE0"/>
<rect x="44.2432" y="7.10254" width="25.411" height="25.411" rx="12.7055" fill="#FF4E4E" stroke="#FF4E4E"/>
<rect x="201.884" y="0.5" width="38.6164" height="38.6164" rx="19.3082" stroke="#FF4E4E"/>
<path d="M218.343 25.7959C218.545 25.9974 218.871 25.9974 219.073 25.7959L223.13 21.7387C223.911 20.9576 223.911 19.6913 223.13 18.9102L219.073 14.8529C218.871 14.6515 218.545 14.6515 218.343 14.8529V14.8529C218.142 15.0544 218.142 15.3809 218.343 15.5823L221.671 18.9102C222.452 19.6913 222.452 20.9576 221.671 21.7387L218.343 25.0665C218.142 25.268 218.142 25.5945 218.343 25.7959V25.7959Z" fill="#FF4E4E" stroke="#FF4E4E"/>
<path d="M22.6568 13.8208C22.4554 13.6193 22.1288 13.6193 21.9274 13.8208L17.8701 17.878C17.0891 18.6591 17.0891 19.9254 17.8701 20.7065L21.9274 24.7638C22.1288 24.9652 22.4554 24.9652 22.6568 24.7638V24.7638C22.8582 24.5623 22.8582 24.2358 22.6568 24.0344L19.3289 20.7065C18.5478 19.9254 18.5478 18.6591 19.3289 17.878L22.6568 14.5501C22.8582 14.3487 22.8582 14.0222 22.6568 13.8208V13.8208Z" fill="#29303B" stroke="#29303B"/>
<path d="M59.6405 23.6365C59.8085 23.6365 59.9392 23.6785 60.0325 23.7625C60.1259 23.8465 60.1725 23.9632 60.1725 24.1125C60.1725 24.2712 60.1259 24.3925 60.0325 24.4765C59.9485 24.5605 59.8179 24.6025 59.6405 24.6025H55.0065C54.8292 24.6025 54.6939 24.5605 54.6005 24.4765C54.5165 24.3925 54.4745 24.2712 54.4745 24.1125C54.4745 23.9632 54.5212 23.8465 54.6145 23.7625C54.7079 23.6785 54.8385 23.6365 55.0065 23.6365H56.7425V16.1325L55.2165 17.1265C55.1419 17.1732 55.0672 17.1965 54.9925 17.1965C54.8619 17.1965 54.7452 17.1359 54.6425 17.0145C54.5492 16.8932 54.5025 16.7625 54.5025 16.6225C54.5025 16.4265 54.5772 16.2865 54.7265 16.2025L56.8545 14.8165C57.0132 14.7139 57.1765 14.6625 57.3445 14.6625C57.5032 14.6625 57.6339 14.7139 57.7365 14.8165C57.8392 14.9192 57.8905 15.0639 57.8905 15.2505V23.6365H59.6405Z" fill="white"/>
<path d="M87.9231 23.6365C88.0911 23.6365 88.2218 23.6785 88.3151 23.7625C88.4085 23.8465 88.4551 23.9632 88.4551 24.1125C88.4551 24.4392 88.2778 24.6025 87.9231 24.6025H82.4351C82.2765 24.6025 82.1458 24.5559 82.0431 24.4625C81.9405 24.3599 81.8891 24.2385 81.8891 24.0985C81.8891 23.9212 81.9545 23.7672 82.0851 23.6365L85.4591 19.9265C85.9258 19.4039 86.2618 18.9372 86.4671 18.5265C86.6818 18.1065 86.7891 17.6865 86.7891 17.2665C86.7891 16.7252 86.6305 16.3099 86.3131 16.0205C86.0051 15.7312 85.5665 15.5865 84.9971 15.5865C84.5491 15.5865 84.1198 15.6705 83.7091 15.8385C83.2985 15.9972 82.8878 16.2445 82.4771 16.5805C82.3371 16.6925 82.2065 16.7485 82.0851 16.7485C81.9825 16.7485 81.8938 16.7019 81.8191 16.6085C81.7445 16.5059 81.7071 16.3845 81.7071 16.2445C81.7071 16.0485 81.7818 15.8899 81.9311 15.7685C82.3138 15.4139 82.7805 15.1339 83.3311 14.9285C83.8818 14.7232 84.4465 14.6205 85.0251 14.6205C85.9118 14.6205 86.6165 14.8539 87.1391 15.3205C87.6711 15.7872 87.9371 16.4172 87.9371 17.2105C87.9371 17.7799 87.8065 18.3259 87.5451 18.8485C87.2931 19.3712 86.8731 19.9545 86.2851 20.5985L83.4851 23.6365H87.9231Z" fill="#FF4E4E"/>
<path d="M114.39 19.5345C114.987 19.7025 115.44 19.9919 115.748 20.4025C116.065 20.8132 116.224 21.3219 116.224 21.9285C116.224 22.7872 115.934 23.4639 115.356 23.9585C114.777 24.4532 113.988 24.7005 112.99 24.7005C112.383 24.7005 111.8 24.5979 111.24 24.3925C110.689 24.1872 110.222 23.9072 109.84 23.5525C109.69 23.4125 109.616 23.2539 109.616 23.0765C109.616 22.9365 109.653 22.8199 109.728 22.7265C109.802 22.6332 109.891 22.5865 109.994 22.5865C110.124 22.5865 110.255 22.6379 110.386 22.7405C110.815 23.0859 111.235 23.3379 111.646 23.4965C112.056 23.6552 112.5 23.7345 112.976 23.7345C113.666 23.7345 114.189 23.5759 114.544 23.2585C114.908 22.9412 115.09 22.4839 115.09 21.8865C115.09 20.6825 114.334 20.0805 112.822 20.0805H112.08C111.93 20.0805 111.809 20.0339 111.716 19.9405C111.632 19.8379 111.59 19.7212 111.59 19.5905C111.59 19.4599 111.632 19.3479 111.716 19.2545C111.809 19.1612 111.93 19.1145 112.08 19.1145H112.598C113.326 19.1145 113.886 18.9559 114.278 18.6385C114.67 18.3119 114.866 17.8452 114.866 17.2385C114.866 16.7065 114.707 16.3005 114.39 16.0205C114.072 15.7312 113.624 15.5865 113.046 15.5865C112.607 15.5865 112.182 15.6705 111.772 15.8385C111.361 15.9972 110.95 16.2445 110.54 16.5805C110.409 16.6832 110.278 16.7345 110.148 16.7345C110.045 16.7345 109.956 16.6879 109.882 16.5945C109.807 16.5012 109.77 16.3845 109.77 16.2445C109.77 16.0672 109.844 15.9085 109.994 15.7685C110.376 15.4139 110.838 15.1339 111.38 14.9285C111.93 14.7232 112.495 14.6205 113.074 14.6205C113.97 14.6205 114.684 14.8492 115.216 15.3065C115.748 15.7639 116.009 16.3799 116 17.1545C115.99 17.7145 115.841 18.2045 115.552 18.6245C115.272 19.0445 114.884 19.3479 114.39 19.5345Z" fill="#FF4E4E"/>
<path d="M144.398 21.5085C144.566 21.5085 144.697 21.5552 144.79 21.6485C144.883 21.7325 144.93 21.8445 144.93 21.9845C144.93 22.3019 144.753 22.4605 144.398 22.4605H143.348V24.0845C143.348 24.2712 143.292 24.4159 143.18 24.5185C143.077 24.6212 142.942 24.6725 142.774 24.6725C142.606 24.6725 142.471 24.6212 142.368 24.5185C142.265 24.4159 142.214 24.2712 142.214 24.0845V22.4605H138.07C137.902 22.4605 137.771 22.4139 137.678 22.3205C137.585 22.2272 137.538 22.1105 137.538 21.9705C137.538 21.8399 137.589 21.6952 137.692 21.5365L142.27 14.9145C142.401 14.7465 142.569 14.6625 142.774 14.6625C142.933 14.6625 143.068 14.7139 143.18 14.8165C143.292 14.9192 143.348 15.0639 143.348 15.2505V21.5085H144.398ZM138.84 21.5085H142.214V16.6505L138.84 21.5085Z" fill="#FF4E4E"/>
<path d="M161.311 25.07C161.087 25.07 160.901 25 160.751 24.86C160.602 24.7107 160.527 24.5193 160.527 24.286C160.527 24.0527 160.602 23.8613 160.751 23.712C160.901 23.5627 161.087 23.488 161.311 23.488C161.526 23.488 161.703 23.5627 161.843 23.712C161.993 23.8613 162.067 24.0527 162.067 24.286C162.067 24.5193 161.993 24.7107 161.843 24.86C161.703 25 161.526 25.07 161.311 25.07ZM164.51 25.07C164.286 25.07 164.1 25 163.95 24.86C163.801 24.7107 163.726 24.5193 163.726 24.286C163.726 24.0527 163.801 23.8613 163.95 23.712C164.1 23.5627 164.286 23.488 164.51 23.488C164.725 23.488 164.902 23.5627 165.042 23.712C165.192 23.8613 165.266 24.0527 165.266 24.286C165.266 24.5193 165.192 24.7107 165.042 24.86C164.902 25 164.725 25.07 164.51 25.07ZM167.71 25.07C167.486 25.07 167.299 25 167.15 24.86C167 24.7107 166.926 24.5193 166.926 24.286C166.926 24.0527 167 23.8613 167.15 23.712C167.299 23.5627 167.486 23.488 167.71 23.488C167.924 23.488 168.102 23.5627 168.242 23.712C168.391 23.8613 168.466 24.0527 168.466 24.286C168.466 24.5193 168.391 24.7107 168.242 24.86C168.102 25 167.924 25.07 167.71 25.07Z" fill="#FF4E4E"/>
<path d="M182.654 22.7055C182.81 22.7055 182.931 22.7445 183.018 22.8225C183.104 22.9005 183.148 23.0089 183.148 23.1475C183.148 23.2949 183.104 23.4075 183.018 23.4855C182.94 23.5635 182.818 23.6025 182.654 23.6025H178.351C178.186 23.6025 178.06 23.5635 177.974 23.4855C177.896 23.4075 177.857 23.2949 177.857 23.1475C177.857 23.0089 177.9 22.9005 177.987 22.8225C178.073 22.7445 178.195 22.7055 178.351 22.7055H179.963V15.7375L178.546 16.6605C178.476 16.7039 178.407 16.7255 178.338 16.7255C178.216 16.7255 178.108 16.6692 178.013 16.5565C177.926 16.4439 177.883 16.3225 177.883 16.1925C177.883 16.0105 177.952 15.8805 178.091 15.8025L180.067 14.5155C180.214 14.4202 180.366 14.3725 180.522 14.3725C180.669 14.3725 180.79 14.4202 180.886 14.5155C180.981 14.6109 181.029 14.7452 181.029 14.9185V22.7055H182.654ZM187.953 23.7065C186.904 23.7065 186.107 23.3079 185.561 22.5105C185.015 21.7132 184.742 20.5519 184.742 19.0265C184.742 17.4925 185.015 16.3269 185.561 15.5295C186.107 14.7322 186.904 14.3335 187.953 14.3335C189.001 14.3335 189.799 14.7322 190.345 15.5295C190.891 16.3182 191.164 17.4795 191.164 19.0135C191.164 20.5475 190.891 21.7132 190.345 22.5105C189.799 23.3079 189.001 23.7065 187.953 23.7065ZM187.953 22.8095C188.681 22.8095 189.218 22.5019 189.565 21.8865C189.911 21.2712 190.085 20.3135 190.085 19.0135C190.085 17.7049 189.911 16.7472 189.565 16.1405C189.227 15.5339 188.689 15.2305 187.953 15.2305C187.225 15.2305 186.687 15.5382 186.341 16.1535C185.994 16.7602 185.821 17.7135 185.821 19.0135C185.821 20.3135 185.994 21.2712 186.341 21.8865C186.687 22.5019 187.225 22.8095 187.953 22.8095Z" fill="#FF4E4E"/>
</svg>
