<svg width="40" height="40" viewBox="0 0 40 40" fill="none" xmlns="http://www.w3.org/2000/svg">
<circle cx="20" cy="20" r="20" fill="#34495E"/>
<g clip-path="url(#clip0_406_1103)">
<path d="M19.9967 27.2593C19.7217 27.2593 19.4579 27.1501 19.2634 26.9556C19.0689 26.7611 18.9597 26.4973 18.9597 26.2223C18.9597 25.9473 19.0689 25.6835 19.2634 25.489C19.4579 25.2945 19.7217 25.1853 19.9967 25.1853C20.2717 25.1853 20.5355 25.2945 20.73 25.489C20.9245 25.6835 21.0337 25.9473 21.0337 26.2223C21.0337 26.4973 20.9245 26.7611 20.73 26.9556C20.5355 27.1501 20.2717 27.2593 19.9967 27.2593ZM11.7004 12.7408H28.293V24.1482H11.7004V12.7408ZM28.293 26.2223C28.8431 26.2223 29.3706 26.0038 29.7596 25.6148C30.1485 25.2259 30.3671 24.6983 30.3671 24.1482V12.7408C30.3671 12.1907 30.1485 11.6632 29.7596 11.2742C29.3706 10.8853 28.8431 10.6667 28.293 10.6667H11.7004C10.5493 10.6667 9.62632 11.5897 9.62632 12.7408V24.1482C9.62632 24.6983 9.84484 25.2259 10.2338 25.6148C10.6228 26.0038 11.1503 26.2223 11.7004 26.2223H7.55225C7.55225 26.7724 7.77076 27.2999 8.15973 27.6889C8.54869 28.0779 9.07624 28.2964 9.62632 28.2964H30.3671C30.9171 28.2964 31.4447 28.0779 31.8337 27.6889C32.2226 27.2999 32.4411 26.7724 32.4411 26.2223H28.293Z" fill="white"/>
<path d="M16.4414 17.4816C16.4414 16.8529 16.6911 16.25 17.1357 15.8055C17.5802 15.3609 18.1831 15.1112 18.8118 15.1112H21.1821C21.8108 15.1112 22.4137 15.3609 22.8583 15.8055C23.3028 16.25 23.5525 16.8529 23.5525 17.4816V19.8519C23.5525 20.4806 23.3028 21.0835 22.8583 21.5281C22.4137 21.9726 21.8108 22.2223 21.1821 22.2223H18.8118C18.1831 22.2223 17.5802 21.9726 17.1357 21.5281C16.6911 21.0835 16.4414 20.4806 16.4414 19.8519V17.4816Z" fill="#2C8CF4"/>
<path d="M17.9238 17.7779C17.9238 17.6993 17.955 17.6239 18.0106 17.5684C18.0662 17.5128 18.1415 17.4816 18.2201 17.4816H19.9979C20.2337 17.4816 20.4597 17.5752 20.6264 17.7419C20.7931 17.9086 20.8868 18.1347 20.8868 18.3705V19.5556C20.8868 19.6342 20.8556 19.7096 20.8 19.7652C20.7444 19.8207 20.6691 19.8519 20.5905 19.8519H18.8127C18.577 19.8519 18.3509 19.7583 18.1842 19.5916C18.0175 19.4249 17.9238 19.1988 17.9238 18.963V17.7779Z" fill="white"/>
<path d="M21.0352 18.5933C21.0351 18.4496 21.0872 18.3109 21.1818 18.2028L21.6826 17.6303C21.818 17.4763 22.0722 17.5717 22.0722 17.7767V19.5569C22.0722 19.7622 21.818 19.8576 21.6829 19.7032L21.1818 19.1308C21.0873 19.0228 21.0352 18.8841 21.0352 18.7406V18.593V18.5933Z" fill="white"/>
</g>
<defs>
<clipPath id="clip0_406_1103">
<rect width="24.8889" height="24.8889" fill="white" transform="translate(7.55225 7.55566)"/>
</clipPath>
</defs>
</svg>
