<svg width="88" height="14" viewBox="0 0 88 14" fill="none" xmlns="http://www.w3.org/2000/svg">
<path d="M7.05332 0.888123C7.23796 0.521005 7.76204 0.521005 7.94669 0.888123L9.70021 4.37458C9.7737 4.52069 9.914 4.62163 10.0759 4.64485L13.9824 5.20523C14.3952 5.26446 14.5584 5.77338 14.2569 6.06159L11.443 8.75137C11.3224 8.86666 11.2672 9.03451 11.296 9.19887L11.9616 13.0075C12.0327 13.4148 11.6071 13.7275 11.2397 13.5379L7.72932 11.7261C7.58546 11.6519 7.41455 11.6519 7.27068 11.7261L3.7603 13.5379C3.39294 13.7275 2.96728 13.4148 3.03844 13.0075L3.70404 9.19887C3.73276 9.03451 3.67761 8.86666 3.557 8.75137L0.743152 6.06159C0.441647 5.77338 0.604778 5.26446 1.01765 5.20523L4.92411 4.64485C5.086 4.62163 5.2263 4.52069 5.29979 4.37458L7.05332 0.888123Z" fill="#FFB801"/>
<path d="M25.0533 0.888123C25.238 0.521005 25.762 0.521005 25.9467 0.888123L27.7002 4.37458C27.7737 4.52069 27.914 4.62163 28.0759 4.64485L31.9824 5.20523C32.3952 5.26446 32.5584 5.77338 32.2569 6.06159L29.443 8.75137C29.3224 8.86666 29.2672 9.03451 29.296 9.19887L29.9616 13.0075C30.0327 13.4148 29.6071 13.7275 29.2397 13.5379L25.7293 11.7261C25.5855 11.6519 25.4145 11.6519 25.2707 11.7261L21.7603 13.5379C21.3929 13.7275 20.9673 13.4148 21.0384 13.0075L21.704 9.19887C21.7328 9.03451 21.6776 8.86666 21.557 8.75137L18.7432 6.0616C18.4416 5.77338 18.6048 5.26446 19.0176 5.20523L22.9241 4.64485C23.086 4.62163 23.2263 4.52069 23.2998 4.37458L25.0533 0.888123Z" fill="#FFB801"/>
<path d="M43.5474 0.964188C43.7274 0.58081 44.2726 0.58081 44.4526 0.964188L46.0498 4.36654C46.1205 4.51733 46.2618 4.62296 46.4264 4.64827L50.0389 5.20349C50.441 5.26529 50.6049 5.75589 50.3207 6.04699L47.6764 8.75523C47.5655 8.86882 47.5151 9.02833 47.5406 9.18502L48.1602 12.9836C48.2274 13.3956 47.7901 13.7036 47.4248 13.5016L44.242 11.7416C44.0914 11.6583 43.9086 11.6583 43.758 11.7416L40.5752 13.5016C40.2099 13.7036 39.7726 13.3956 39.8398 12.9836L40.4594 9.18502C40.4849 9.02833 40.4345 8.86882 40.3236 8.75523L37.6793 6.04699C37.3951 5.75589 37.559 5.26529 37.9611 5.20349L41.5736 4.64827C41.7382 4.62296 41.8795 4.51733 41.9502 4.36654L43.5474 0.964188Z" fill="#FFB801"/>
<path d="M62.0533 0.888123C62.238 0.521005 62.762 0.521005 62.9467 0.888123L64.7002 4.37458C64.7737 4.52069 64.914 4.62163 65.0759 4.64485L68.9824 5.20523C69.3952 5.26446 69.5584 5.77338 69.2569 6.06159L66.443 8.75137C66.3224 8.86666 66.2672 9.03451 66.296 9.19887L66.9616 13.0075C67.0327 13.4148 66.6071 13.7275 66.2397 13.5379L62.7293 11.7261C62.5855 11.6519 62.4145 11.6519 62.2707 11.7261L58.7603 13.5379C58.3929 13.7275 57.9673 13.4148 58.0384 13.0075L58.704 9.19887C58.7328 9.03451 58.6776 8.86666 58.557 8.75137L55.7432 6.0616C55.4416 5.77338 55.6048 5.26446 56.0176 5.20523L59.9241 4.64485C60.086 4.62163 60.2263 4.52069 60.2998 4.37458L62.0533 0.888123Z" fill="#FFB801"/>
<path d="M80.5474 0.964187C80.7274 0.58081 81.2727 0.58081 81.4526 0.964187L83.0498 4.36654C83.1205 4.51733 83.2618 4.62296 83.4264 4.64827L87.0389 5.20349C87.441 5.26529 87.6049 5.75589 87.3207 6.04699L84.6764 8.75523C84.5655 8.86882 84.5151 9.02833 84.5407 9.18502L85.1602 12.9836C85.2274 13.3956 84.7901 13.7036 84.4248 13.5016L81.242 11.7416C81.0914 11.6583 80.9086 11.6583 80.758 11.7416L77.5752 13.5016C77.2099 13.7036 76.7726 13.3956 76.8398 12.9836L77.4594 9.18502C77.4849 9.02833 77.4345 8.86882 77.3236 8.75523L74.6793 6.04699C74.3951 5.75589 74.559 5.26529 74.9611 5.20349L78.5736 4.64827C78.7382 4.62296 78.8795 4.51733 78.9503 4.36654L80.5474 0.964187Z" fill="#FFB801"/>
</svg>
