<svg width="15" height="15" viewBox="0 0 15 15" fill="none" xmlns="http://www.w3.org/2000/svg">
<path d="M2.9165 5H9.99984V5.66667H2.9165V5Z" fill="#262626"/>
<path d="M2.9165 6.66666H7.49984V7.33332H2.9165V6.66666Z" fill="#262626"/>
<path d="M2.9165 9.58334H7.08317V10.25H2.9165V9.58334Z" fill="#262626"/>
<path d="M11.4416 7.17916C10.9084 7.17493 10.3863 7.33164 9.94357 7.62882C9.50085 7.926 9.15808 8.34982 8.96005 8.84489C8.76202 9.33997 8.71794 9.88327 8.83358 10.4038C8.94922 10.9243 9.21919 11.3978 9.60822 11.7625L8.79988 12.75L9.17488 14.2542L10.6999 12.3958C11.1826 12.5386 11.6963 12.5386 12.1791 12.3958L13.7041 14.2542L14.0791 12.75L13.2707 11.7625C13.6597 11.3978 13.9297 10.9243 14.0454 10.4038C14.161 9.88327 14.1169 9.33997 13.9189 8.84489C13.7209 8.34982 13.3781 7.926 12.9354 7.62882C12.4926 7.33164 11.9706 7.17493 11.4374 7.17916H11.4416ZM11.4416 11.6292C11.0875 11.6242 10.7428 11.5147 10.4507 11.3144C10.1587 11.1141 9.93245 10.832 9.80035 10.5034C9.66825 10.1749 9.63624 9.8146 9.70833 9.4679C9.78042 9.12121 9.95339 8.80357 10.2055 8.55491C10.4576 8.30625 10.7776 8.13768 11.1253 8.07039C11.473 8.0031 11.8327 8.04009 12.1594 8.17672C12.4861 8.31335 12.7651 8.54351 12.9614 8.83826C13.1576 9.13302 13.2623 9.47922 13.2624 9.83333C13.258 10.3126 13.0639 10.7706 12.7227 11.1071C12.3815 11.4437 11.9208 11.6314 11.4416 11.6292Z" fill="#262626"/>
<path d="M13.3335 5.50834V6.90001C13.65 7.10492 13.9314 7.35959 14.1668 7.65417V5.15417C13.9079 5.31233 13.6271 5.43165 13.3335 5.50834Z" fill="#262626"/>
<path d="M1.66683 11.6667V3.33333H9.49183C9.4155 3.0621 9.37625 2.78177 9.37516 2.5H1.66683C1.44582 2.5 1.23385 2.5878 1.07757 2.74408C0.921293 2.90036 0.833496 3.11232 0.833496 3.33333V11.6667C0.833496 11.8877 0.921293 12.0996 1.07757 12.2559C1.23385 12.4122 1.44582 12.5 1.66683 12.5H7.91683L8.15433 12.2083L8.54183 11.7333L8.50433 11.6667H1.66683Z" fill="#262626"/>
<path d="M12.4998 4.58332C13.6504 4.58332 14.5832 3.65058 14.5832 2.49999C14.5832 1.3494 13.6504 0.416656 12.4998 0.416656C11.3492 0.416656 10.4165 1.3494 10.4165 2.49999C10.4165 3.65058 11.3492 4.58332 12.4998 4.58332Z" fill="#262626"/>
</svg>
