<svg width="15" height="14" viewBox="0 0 15 14" fill="none" xmlns="http://www.w3.org/2000/svg">
<path d="M10.3302 9.838L14.8272 5.415L14.8842 5.35C14.9686 5.23669 15.0093 5.09675 14.9988 4.95586C14.9883 4.81497 14.9274 4.68258 14.8272 4.583L10.3302 0.161996L10.2682 0.108996C9.9082 -0.161004 9.3782 0.0989963 9.3782 0.577996V2.708L9.1532 2.723C5.5902 3.005 3.5032 5.26 3.0052 9.35C2.9412 9.875 3.5432 10.204 3.9332 9.856C5.3642 8.578 6.8432 7.784 8.3782 7.466C8.6242 7.415 8.8712 7.376 9.1202 7.349L9.3782 7.326V9.422L9.3832 9.504C9.4432 9.957 9.9922 10.17 10.3302 9.838ZM9.2262 3.72L10.3782 3.643V1.61L13.8242 4.998L10.3782 8.388V6.231L9.0222 6.353H9.0142C7.3112 6.536 5.7042 7.218 4.1872 8.355C4.4852 7.016 4.9942 6.009 5.6632 5.288C6.4932 4.393 7.6532 3.845 9.2262 3.719V3.72Z" fill="#262626"/>
<path d="M2.5 1C1.83696 1 1.20107 1.26339 0.732233 1.73223C0.263392 2.20107 0 2.83696 0 3.5V11.5C0 12.163 0.263392 12.7989 0.732233 13.2678C1.20107 13.7366 1.83696 14 2.5 14H10.5C11.163 14 11.7989 13.7366 12.2678 13.2678C12.7366 12.7989 13 12.163 13 11.5V10.5C13 10.3674 12.9473 10.2402 12.8536 10.1464C12.7598 10.0527 12.6326 10 12.5 10C12.3674 10 12.2402 10.0527 12.1464 10.1464C12.0527 10.2402 12 10.3674 12 10.5V11.5C12 11.8978 11.842 12.2794 11.5607 12.5607C11.2794 12.842 10.8978 13 10.5 13H2.5C2.10218 13 1.72064 12.842 1.43934 12.5607C1.15804 12.2794 1 11.8978 1 11.5V3.5C1 3.10218 1.15804 2.72064 1.43934 2.43934C1.72064 2.15804 2.10218 2 2.5 2H5.5C5.63261 2 5.75979 1.94732 5.85355 1.85355C5.94732 1.75979 6 1.63261 6 1.5C6 1.36739 5.94732 1.24021 5.85355 1.14645C5.75979 1.05268 5.63261 1 5.5 1H2.5Z" fill="#262626"/>
</svg>
