<svg width="40" height="40" viewBox="0 0 40 40" fill="none" xmlns="http://www.w3.org/2000/svg">
<circle cx="20" cy="20" r="20" fill="#FFB801"/>
<g clip-path="url(#clip0_406_1111)">
<path d="M22.489 9.2148H17.5112V7.55554H22.489V9.2148Z" fill="white"/>
<path fill-rule="evenodd" clip-rule="evenodd" d="M20 10.874C17.1396 10.874 14.3964 12.0103 12.3738 14.0329C10.3511 16.0555 9.21484 18.7988 9.21484 21.6592C9.21484 24.5196 10.3511 27.2629 12.3738 29.2855C14.3964 31.3081 17.1396 32.4444 20 32.4444C22.8604 32.4444 25.6037 31.3081 27.6263 29.2855C29.6489 27.2629 30.7852 24.5196 30.7852 21.6592C30.7852 18.7988 29.6489 16.0555 27.6263 14.0329C25.6037 12.0103 22.8604 10.874 20 10.874ZM20.8297 20.8296V15.8518H19.1704V22.4888H24.1482V20.8296H20.8297Z" fill="white"/>
</g>
<defs>
<clipPath id="clip0_406_1111">
<rect width="24.8889" height="24.8889" fill="white" transform="translate(7.55615 7.55554)"/>
</clipPath>
</defs>
</svg>
