<svg width="20" height="14" viewBox="0 0 20 14" fill="none" xmlns="http://www.w3.org/2000/svg">
<path d="M1 5.00001H11L9.31 1.80001L9.28 1.58001C9.28 1.29001 9.4 1.03001 9.6 0.840006L10.37 0.100006L14.57 5.00001C14.84 5.26001 15 5.61001 15 6.00001V12.5C15 13.27 14.3 14 13.5 14H9.14C8.53 14 8 13.65 7.8 13.15L5.6 8.21001L5.47 7.00001H1C0.734784 7.00001 0.48043 6.89465 0.292893 6.70711C0.105357 6.51958 0 6.26522 0 6.00001C0 5.73479 0.105357 5.48044 0.292893 5.2929C0.48043 5.10536 0.734784 5.00001 1 5.00001ZM17 14V6.00001H20V14H17Z" fill="#01949A"/>
</svg>
